# xmcd CD database file
#
# Track frame offsets:
#	182
#	28255
#	36987
#	57327
#	73525
#	87342
#	101700
#	120987
#	140282
#	154747
#	170125
#
# Disc length: 2718 seconds
#
# Revision: 0
# Processed by: cddbd v1.5.1PL2 Copyright (c) Steve Scherf et al.
# Submitted via: CDex 1.51
#
DISCID=970a9c0b
DTITLE=Joe Sachse - Solo
DYEAR=1988
DGENRE=Jazz
TTITLE0=La Fiesta
TTITLE1=Ballade für Kurt Tucholsky
TTITLE2=Skurrile Geschichte für Ephraim Kishon
TTITLE3=Sorcery (Jarrett)
TTITLE4=Schraubenzieher-Tango für Jaroslav Hasek
TTITLE5=Minimal für Christian Morgenstern
TTITLE6=Blues für Karl Kraus
TTITLE7=Well, You Needn't (Monk)
TTITLE8=Sophisticated Lady (Ellingotn)
TTITLE9=Flöten-Sounds für Rainer Klis
TTITLE10=Walzer für George Bernhard Shaw
EXTD=YEAR: 1988
EXTT0=
EXTT1=
EXTT2=
EXTT3=
EXTT4=
EXTT5=
EXTT6=
EXTT7=
EXTT8=
EXTT9=
EXTT10=
PLAYORDER=
